<svg viewBox="0 0 512 512" xmlns="http://www.w3.org/2000/svg"><defs>
  <linearGradient id="TL" x1="60" y1="40" x2="470" y2="480" gradientUnits="userSpaceOnUse"><stop offset="0" stop-color="#241E5E"/><stop offset="0.52" stop-color="#171244"/><stop offset="1" stop-color="#0D0A28"/></linearGradient>
  <linearGradient id="SH" x1="0" y1="0" x2="0" y2="300" gradientUnits="userSpaceOnUse"><stop offset="0" stop-color="#fff" stop-opacity="0.12"/><stop offset="1" stop-color="#fff" stop-opacity="0"/></linearGradient>
  <radialGradient id="HALO" cx="0.5" cy="0.5" r="0.55"><stop offset="0" stop-color="#22D3EE" stop-opacity="0.30"/><stop offset="1" stop-color="#22D3EE" stop-opacity="0"/></radialGradient>
  <linearGradient id="ring" x1="120" y1="120" x2="392" y2="392" gradientUnits="userSpaceOnUse"><stop offset="0" stop-color="#6366F1"/><stop offset="0.5" stop-color="#4F7BF6"/><stop offset="1" stop-color="#22D3EE"/></linearGradient>
  <linearGradient id="b1" x1="0" y1="1" x2="0" y2="0"><stop offset="0" stop-color="#4338CA"/><stop offset="1" stop-color="#4F46E5"/></linearGradient>
  <linearGradient id="b2" x1="0" y1="1" x2="0" y2="0"><stop offset="0" stop-color="#5560F0"/><stop offset="1" stop-color="#6366F1"/></linearGradient>
  <linearGradient id="b3" x1="0" y1="1" x2="0" y2="0"><stop offset="0" stop-color="#22D3EE"/><stop offset="1" stop-color="#3FE3F2"/></linearGradient></defs><rect width="512" height="512" rx="118" fill="url(#TL)"/><rect width="512" height="512" rx="118" fill="url(#SH)"/><rect x="1" y="1" width="510" height="510" rx="117" fill="none" stroke="#7C86FF" stroke-opacity="0.16" stroke-width="2"/><circle cx="256" cy="256" r="200" fill="url(#HALO)"/><circle cx="256" cy="248" r="150" fill="none" stroke="url(#ring)" stroke-width="30"/><line x1="332" y1="324" x2="392" y2="384" stroke="#0D0A28" stroke-width="70" stroke-linecap="round"/><line x1="332" y1="324" x2="390" y2="382" stroke="#34E0F0" stroke-width="42" stroke-linecap="round"/><rect x="186" y="326" width="150" height="20" rx="10" fill="url(#ring)"/><rect x="198" y="274" width="30" height="52" rx="11" fill="url(#b1)"/><rect x="246" y="240" width="30" height="86" rx="11" fill="url(#b2)"/><rect x="294" y="206" width="30" height="120" rx="11" fill="url(#b3)"/></svg>